<?xml version="1.0" encoding="UTF-8"?>
<!DOCTYPE svg PUBLIC "-//W3C//DTD SVG 1.1//EN" "http://www.w3.org/Graphics/SVG/1.1/DTD/svg11.dtd">
<svg xmlns="http://www.w3.org/2000/svg" version="1.1" width="170px" height="38px" style="shape-rendering:geometricPrecision; text-rendering:geometricPrecision; image-rendering:optimizeQuality; fill-rule:evenodd; clip-rule:evenodd" xmlns:xlink="http://www.w3.org/1999/xlink">
<g><path style="opacity:0.752" fill="#000000" d="M 23.5,16.5 C 28.8333,16.5 34.1667,16.5 39.5,16.5C 39.5,18.1667 39.5,19.8333 39.5,21.5C 35.8333,21.5 32.1667,21.5 28.5,21.5C 28.5,22.5 28.5,23.5 28.5,24.5C 32.5,24.5 36.5,24.5 40.5,24.5C 40.5,26.1667 40.5,27.8333 40.5,29.5C 34.8333,29.5 29.1667,29.5 23.5,29.5C 23.7895,25.446 23.1229,24.946 21.5,28C 16.4799,30.3529 11.8132,29.8529 7.5,26.5C 6.57131,25.3112 6.23798,23.9778 6.5,22.5C 10.4257,23.695 14.4257,24.195 18.5,24C 18.8333,23.6667 19.1667,23.3333 19.5,23C 17.9464,21.2519 16.2798,21.0852 14.5,22.5C 5.68403,20.5521 4.3507,16.3854 10.5,10C 13.8333,9.33333 17.1667,9.33333 20.5,10C 22.557,13.2998 23.557,13.1331 23.5,9.5C 29.1667,9.5 34.8333,9.5 40.5,9.5C 40.5,11.1667 40.5,12.8333 40.5,14.5C 34.9066,14.8066 29.4066,14.4732 24,13.5C 23.5172,14.448 23.3505,15.448 23.5,16.5 Z M 23.5,16.5 C 23.5,17.8333 23.5,19.1667 23.5,20.5C 22.7326,19.828 22.0659,18.9947 21.5,18C 18.2473,16.9635 14.914,16.2969 11.5,16C 12.6001,14.977 13.9334,14.477 15.5,14.5C 18.0115,15.6552 20.6781,16.3219 23.5,16.5 Z"/></g>
<g><path style="opacity:0.734" fill="#000000" d="M 41.5,9.5 C 43.1667,9.5 44.8333,9.5 46.5,9.5C 46.5,14.5 46.5,19.5 46.5,24.5C 49.8333,24.5 53.1667,24.5 56.5,24.5C 56.5,21.8333 56.5,19.1667 56.5,16.5C 61.8746,16.1718 67.2079,16.5052 72.5,17.5C 71.7542,18.7362 71.4208,20.0695 71.5,21.5C 68.1667,21.5 64.8333,21.5 61.5,21.5C 61.5,22.5 61.5,23.5 61.5,24.5C 65.5,24.5 69.5,24.5 73.5,24.5C 73.5,26.1667 73.5,27.8333 73.5,29.5C 62.8333,29.5 52.1667,29.5 41.5,29.5C 41.5,22.8333 41.5,16.1667 41.5,9.5 Z"/></g>
<g><path style="opacity:0.789" fill="#000000" d="M 56.5,9.5 C 62.1667,9.5 67.8333,9.5 73.5,9.5C 73.5,11.1667 73.5,12.8333 73.5,14.5C 67.8333,14.5 62.1667,14.5 56.5,14.5C 56.5,12.8333 56.5,11.1667 56.5,9.5 Z"/></g>
<g><path style="opacity:0.77" fill="#000000" d="M 79.5,9.5 C 83.1916,8.97122 86.3583,9.97122 89,12.5C 89.4828,11.552 89.6495,10.552 89.5,9.5C 95.1667,9.5 100.833,9.5 106.5,9.5C 106.5,11.1667 106.5,12.8333 106.5,14.5C 101.156,14.334 95.8229,14.5006 90.5,15C 93.1792,16.7888 93.0125,17.9555 90,18.5C 87.4376,17.6123 85.1042,16.279 83,14.5C 75.9722,17.541 75.8055,20.8743 82.5,24.5C 84.5165,23.8257 86.1832,22.6591 87.5,21C 93.3964,20.8649 93.7298,22.8649 88.5,27C 82.6232,30.3777 77.7899,29.211 74,23.5C 72.268,17.3137 74.1014,12.647 79.5,9.5 Z"/></g>
<g><path style="opacity:0.763" fill="#233c95" d="M 109.5,9.5 C 116.116,11.9526 121.783,15.786 126.5,21C 124.971,24.0981 122.638,24.9315 119.5,23.5C 120.025,22.8076 120.692,22.3076 121.5,22C 119.336,21.0857 117.336,19.919 115.5,18.5C 114.353,20.7649 114.186,23.0982 115,25.5C 116.545,24.1787 117.711,24.5121 118.5,26.5C 115.879,28.8134 112.879,30.1467 109.5,30.5C 109.5,23.5 109.5,16.5 109.5,9.5 Z"/></g>
<g><path style="opacity:0.76" fill="#000000" d="M 134.5,9.5 C 138.167,9.5 141.833,9.5 145.5,9.5C 145.5,11.1667 145.5,12.8333 145.5,14.5C 141.089,14.021 136.922,14.6876 133,16.5C 131.511,22.701 134.011,25.3677 140.5,24.5C 140.5,23.5 140.5,22.5 140.5,21.5C 137.167,22.1667 135.167,20.8333 134.5,17.5C 138.122,16.6747 141.789,16.1747 145.5,16C 151.505,7.59327 157.672,7.4266 164,15.5C 165.534,22.9831 162.534,27.6498 155,29.5C 150.841,28.6758 147.841,26.3424 146,22.5C 145.503,24.8098 145.337,27.1432 145.5,29.5C 141.064,29.7899 136.73,29.2899 132.5,28C 127.845,25.1034 126.345,20.9367 128,15.5C 129.494,12.6865 131.66,10.6865 134.5,9.5 Z M 153.5,14.5 C 158.722,14.9446 160.389,17.6113 158.5,22.5C 156.044,25.0801 153.544,25.0801 151,22.5C 149.837,19.0289 150.67,16.3623 153.5,14.5 Z"/></g>
<g><path style="opacity:0.7" fill="#000000" d="M 95.5,16.5 C 97.1667,16.5 98.8333,16.5 100.5,16.5C 100.5,20.8333 100.5,25.1667 100.5,29.5C 98.8333,29.5 97.1667,29.5 95.5,29.5C 95.5,25.1667 95.5,20.8333 95.5,16.5 Z"/></g>
</svg>
